<svg width="13" height="8" viewBox="0 0 13 8" fill="none" xmlns="http://www.w3.org/2000/svg">
<path d="M6.45319 7.4533C6.68994 7.4533 6.89287 7.36536 7.06874 7.17596L12.2232 1.91328C12.372 1.76446 12.4532 1.57506 12.4532 1.35184C12.4532 0.905387 12.1014 0.546875 11.6482 0.546875C11.425 0.546875 11.2288 0.641576 11.0733 0.790392L6.45319 5.53222L1.83312 0.790392C1.67754 0.641576 1.47461 0.546875 1.25815 0.546875C0.804933 0.546874 0.453186 0.905386 0.453186 1.35183C0.453186 1.57506 0.534359 1.76446 0.683175 1.91328L5.83086 7.17596C6.0135 7.36536 6.21643 7.4533 6.45319 7.4533Z" fill="#8E8E8F"/>
</svg>
